# xmcd CD database file
#
# Track frame offsets:
#	150
#	15219
#	42039
#	62209
#	79843
#	99113
#	118668
#	143102
#	166470
#	183922
#	211567
#	228418
#
# Disc length: 3417 seconds
#
# Revision: 0
# Processed by: cddbd v1.5.1PL2 Copyright (c) Steve Scherf et al.
# Submitted via: CDex 1.51
#
DISCID=8b0d570c
DTITLE=Anne Chris - Tomorrow is today
DYEAR=2004
DGENRE=Jazz
TTITLE0=Tomorrow is today
TTITLE1=Long years
TTITLE2=New worlds
TTITLE3=Let's stay together
TTITLE4=Wandering
TTITLE5=Empty road
TTITLE6=Visions
TTITLE7=This is always
TTITLE8=You're everything
TTITLE9=The thrill is gone
TTITLE10=Sabia
TTITLE11=This is for me
EXTD=YEAR: 2004
EXTT0=
EXTT1=
EXTT2=
EXTT3=
EXTT4=
EXTT5=
EXTT6=
EXTT7=
EXTT8=
EXTT9=
EXTT10=
EXTT11=
PLAYORDER=
